<?xml version="1.0" encoding="UTF-8"?>
<!DOCTYPE svg PUBLIC "-//W3C//DTD SVG 1.1//EN" "http://www.w3.org/Graphics/SVG/1.1/DTD/svg11.dtd">
<!-- Creator: CorelDRAW -->
<svg xmlns="http://www.w3.org/2000/svg" xml:space="preserve" width="60.6763mm" height="24.8324mm" version="1.1" style="shape-rendering:geometricPrecision; text-rendering:geometricPrecision; image-rendering:optimizeQuality; fill-rule:evenodd; clip-rule:evenodd"
viewBox="0 0 16673.82 6823.93"
 xmlns:xlink="http://www.w3.org/1999/xlink"
 xmlns:xodm="http://www.corel.com/coreldraw/odm/2003">
 <defs>
  <style type="text/css">
   <![CDATA[
    .fil5 {fill:#FEFEFE;fill-rule:nonzero}
    .fil4 {fill:#EA7034;fill-rule:nonzero}
    .fil0 {fill:url(#id0)}
    .fil3 {fill:url(#id1)}
    .fil1 {fill:url(#id2)}
    .fil2 {fill:url(#id3)}
   ]]>
  </style>
  <linearGradient id="id0" gradientUnits="userSpaceOnUse" x1="1836.16" y1="372.63" x2="4874.09" y2="6231.44">
   <stop offset="0" style="stop-opacity:1; stop-color:#FED69D"/>
   <stop offset="0.509804" style="stop-opacity:1; stop-color:#F89F56"/>
   <stop offset="1" style="stop-opacity:1; stop-color:#EA7034"/>
  </linearGradient>
  <linearGradient id="id1" gradientUnits="userSpaceOnUse" xlink:href="#id0" x1="1820.35" y1="405.11" x2="4858.35" y2="6233.91">
  </linearGradient>
  <linearGradient id="id2" gradientUnits="userSpaceOnUse" xlink:href="#id0" x1="992.16" y1="810.14" x2="4030.13" y2="6669.06">
  </linearGradient>
  <linearGradient id="id3" gradientUnits="userSpaceOnUse" xlink:href="#id0" x1="2460.97" y1="48.72" x2="5498.79" y2="5907.39">
  </linearGradient>
 </defs>
 <g id="Camada_x0020_1">
  <metadata id="CorelCorpID_0Corel-Layer"/>
  <g id="_2191099942704">
   <path class="fil0" d="M6280.16 4623.39c-77.8,184.34 -174.28,362.16 -286.78,528.58 -111.4,164.82 -239.35,319.87 -380.32,460.84 -140.67,140.67 -295.74,268.62 -460.81,380.57 -166.17,112.23 -343.99,208.74 -528.58,286.81 -187.58,79.42 -384.11,140.4 -584.17,181.07 -409.59,84.03 -845.2,84.03 -1255.06,0 -199.78,-40.67 -396.29,-101.65 -583.87,-181.07 -184.89,-78.07 -362.71,-174.58 -528.88,-286.81 -164.8,-111.4 -319.84,-239.63 -460.81,-380.57 -140.94,-140.7 -268.89,-295.74 -380.3,-460.84 -112.5,-166.42 -209.01,-344.24 -286.81,-528.58 -79.42,-187.58 -140.42,-383.84 -181.34,-583.89 -42.02,-204.92 -63.18,-416.07 -63.18,-627.53 0,-211.71 21.16,-422.86 63.18,-627.5 40.92,-200.33 101.92,-396.59 181.34,-584.17 77.8,-184.34 174.31,-362.16 286.81,-528.58 111.4,-165.1 239.63,-320.14 380.3,-460.84 140.97,-141.22 296.01,-268.89 460.81,-380.3 166.45,-112.5 344.54,-209.01 528.88,-286.81 187.3,-79.42 383.84,-140.4 583.87,-181.34 204.95,-42.02 416.1,-63.15 627.53,-63.15 211.71,0 422.89,21.13 627.53,63.15 200.33,40.95 396.59,101.92 584.17,181.34 184.06,77.8 362.13,174.31 528.58,286.81 165.07,111.68 320.14,239.63 460.81,380.3 140.97,140.7 268.92,295.74 380.32,460.84 112.5,166.42 208.99,344.52 286.78,528.58 79.44,187.85 140.42,384.39 181.37,584.17 41.74,204.64 63.15,415.8 63.15,627.5 0,211.46 -21.41,422.61 -63.15,627.53 -40.95,199.78 -101.92,396.04 -181.37,583.89zm-2868.19 -4623.39c-1881.5,0 -3411.97,1530.47 -3411.97,3411.97 0,1881.25 1530.47,3411.97 3411.97,3411.97 1881.5,0 3411.97,-1530.72 3411.97,-3411.97 0,-1881.5 -1530.47,-3411.97 -3411.97,-3411.97z"/>
   <path class="fil1" d="M2802.08 3553.21l-224.18 -168.62 -342.1 257.51 8.68 330.72c7.03,-5.17 14.37,-10.03 21.41,-15.47l0 0 536.19 -404.15z"/>
   <path class="fil2" d="M4018.64 3554.01l510.96 384.94c14.89,12.2 30.37,23.58 45.81,34.4l8.66 -330.69 -341.8 -258.06 -223.63 169.41z"/>
   <path class="fil3" d="M4716.08 2582.51c-58.81,25.47 -114.37,57.74 -165.35,96.48 0,0.27 -0.27,0.55 -0.55,0.55l-1140.39 859.57 -1138.77 -858.23c-0.25,-0.25 -0.25,-0.25 -0.52,-0.52 -52.32,-39.57 -108.16,-72.38 -166.72,-97.86l-11.1 -480.07 1093.21 824.04 -204.92 154.25 224.18 168.62 204.64 -153.97 204.95 154.25 223.91 -168.89 -204.67 -154.25 1093.24 -824.04 -11.13 480.07zm885.87 168.86c-73.45,-73.45 -159.11,-131.19 -254.55,-171.31 -98.65,-42.02 -203.3,-63.15 -311.46,-63.15 -16.27,0 -32.78,0.52 -48.78,1.62l15.99 -687.16c0,-39.85 -14.37,-68.32 -27.4,-84.86 -45.81,-58.81 -129.29,-71.28 -188.92,-26.57l-1377.05 1037.67 -1377.02 -1037.67c-59.38,-44.98 -143.42,-32.78 -188.95,26.3 -21.96,29.02 -27.1,62.63 -27.1,84.58l15.99 687.44c-14.92,-0.82 -29.82,-1.35 -44.74,-1.35 -107.89,0 -212.78,21.13 -311.46,63.15 -95.41,40.12 -181.07,97.86 -254.52,171.31 -73.21,73.45 -130.94,159.14 -171.34,254.27 -41.74,98.93 -62.87,203.57 -62.87,311.46 0,108.16 21.13,212.78 62.87,311.73 40.4,95.14 98.13,180.79 171.34,254.27 73.45,73.45 159.11,131.19 254.52,171.58 98.68,41.74 203.57,62.87 311.46,62.87 27.64,0 54.77,-1.35 81.86,-4.34l15.2 659.52c0,0 -3.54,57.21 -6.24,71.04 -6.51,33.88 -24.4,61.53 -54.77,85.11 -30.37,23.85 -71.28,37.15 -121.43,40.12 -13.27,0.82 -23.58,11.93 -23.58,25.2l0 111.95c0,13.82 11.1,24.95 24.92,24.95l626.74 0c13.82,0 25.2,-11.13 25.2,-24.95l0 -111.95c0,-13.27 -10.58,-24.13 -23.58,-25.2 -54.22,-3.24 -96.51,-17.61 -125.25,-42.29 -28.44,-24.4 -44.98,-51.5 -50.67,-82.66l-0.55 -22.51 0 0 -41.47 -1784.19c-7.06,-8.13 -15.99,-16.54 -23.58,-23.85 -67.52,-67.77 -155.87,-110.61 -249.41,-123.06l21.96 951.99c-24.65,3.52 -49.88,5.41 -75.35,5.41 -141.77,0 -274.85,-55.01 -375.16,-155.32 -100.3,-100.3 -155.59,-233.39 -155.59,-375.43 0,-141.49 55.29,-274.61 155.59,-375.16 100.3,-100.3 233.39,-155.32 375.16,-155.32 17.09,0 34.16,0.8 50.98,2.42l0 0.82 0 0c101.92,9.76 195.44,48.78 272.13,108.16l0 0 1074.55 809.67 -931.96 702.36 8.13 331.52 1147.98 -864.99 1148.52 865.78 7.34 -332.32 -931.96 -702.09 1075.07 -810.22c76.45,-60.18 169.96,-97.31 272.16,-107.61l0 -0.82c18.16,-1.62 36.33,-2.69 55.01,-2.69 141.77,0 275.16,55.01 375.43,155.32 100.03,100.55 155.34,233.66 155.34,375.16 0,142.04 -55.32,275.13 -155.34,375.43 -100.27,100.3 -233.66,155.32 -375.43,155.32 -26.82,0 -53.39,-1.9 -79.69,-5.69l22.23 -950.09c-91.62,13 -180.27,55.01 -246.66,121.43 -8.68,8.41 -18.44,17.34 -26.3,26.3l-41.74 1791.78c0,0 -1.65,18.16 -2.17,21.41 -7.34,27.12 -23.33,51.22 -48.8,72.93 -28.74,24.92 -70.73,39.3 -125.23,42.54 -13.3,1.1 -23.58,11.93 -23.58,25.23l0 111.68c0,14.1 11.38,25.2 25.2,25.2l626.71 0c13.82,0 25.23,-11.1 25.23,-25.2l0 -111.68c0,-13.58 -10.58,-24.4 -23.85,-25.23 -50.15,-2.69 -91.1,-16.27 -121.71,-40.12 -30.09,-23.58 -47.98,-51.5 -54.49,-85.11 -2.72,-13.82 -4.89,-32.81 -6.51,-56.11l15.44 -674.14c28.47,2.97 57.21,4.59 85.93,4.59 108.16,0 212.8,-21.13 311.46,-62.87 95.44,-40.4 181.09,-98.13 254.55,-171.58 73.45,-73.48 131.19,-159.14 171.31,-254.27 41.74,-98.96 62.9,-203.57 62.9,-311.73 0,-107.89 -21.16,-212.53 -62.9,-311.46 -40.12,-95.14 -97.86,-180.82 -171.31,-254.27z"/>
   <g>
    <path class="fil4" d="M8469.24 5331.58c-13.47,50.32 -37.76,85.85 -73.89,109.07 -36.91,23.58 -87.58,35.56 -150.92,35.56l-156.94 0 74.5 -278.29 149.19 0c66.83,0 114.23,10.91 139.98,33.06 24.51,21.46 30.5,54.16 18.08,100.6zm75.02 -372.22c-12.12,45.37 -32.87,76.7 -63.42,94.97 -32.26,19.37 -80.98,29.21 -145.73,29.21l-142.51 0 64.22 -239.93 125.61 0c69.3,0 117.45,9.51 142.98,28.5 23.77,17.59 29.79,46.44 18.85,87.25zm-38.03 176.26c35.31,-12.28 66.5,-30.23 92.77,-53.45 39.21,-34.84 66.34,-79.55 80.54,-132.65 20.56,-76.72 8.71,-133.72 -35.86,-169.61 -42.68,-35.15 -119.35,-52.43 -233.99,-52.43l-235.06 0c-8.77,0 -18.16,7.42 -20.61,16.57l-222.45 830.99c-2.36,8.79 3.08,16.19 11.84,16.19l290.24 0c93.6,0 173.84,-22.51 238.42,-66.47 65.79,-44.71 110,-107.34 131.19,-186.48 27.59,-103.08 -4.92,-170.98 -97.03,-202.66z"/>
    <path class="fil4" d="M9245.14 4931.58c-21.9,-4.92 -47.27,-7.39 -75.76,-7.39 -42.24,0 -84.45,11.95 -126.08,35.89 -29.13,16.87 -57.41,38.33 -83.98,65.4l13 -74.94c1.57,-8.41 -3.79,-14.76 -12.2,-14.76l-77.77 0c-9.15,0 -18.16,7.39 -20.53,16.19l-166.78 623.08c-2.36,8.79 2.69,16.19 11.84,16.19l94.28 0c9.15,0 18.16,-7.39 20.5,-16.19l89.5 -334.24c15.14,-56.64 44.96,-104.84 88.1,-142.48 42.68,-37.29 85.93,-55.56 131.68,-55.56 18.66,0 39.68,2.8 62.57,8.08 3.57,1.04 8.77,0 13.33,-2.45 4.51,-2.47 8.11,-6.71 9.67,-11.27l36.82 -87.61c3.68,-8.46 0.22,-16.54 -8.22,-17.94z"/>
    <path class="fil4" d="M9457.39 4723.64c-17.31,13.38 -29.71,33.42 -36.69,59.47 -6.79,25.31 -5.22,45.73 4.95,59.08 10.14,13.38 25.5,20.42 45.89,20.42 19.02,0 37.76,-7.03 55.78,-20.42 17.64,-13.36 30.39,-33.42 37.26,-59.08 6.95,-26.05 4.86,-45.73 -5.72,-58.75 -21.96,-27.1 -68.04,-25.72 -101.48,-0.71z"/>
    <path class="fil4" d="M9498.39 4935.79l-94.31 0c-9.12,0 -18.14,7.39 -20.5,16.19l-166.78 623.08c-2.36,8.79 2.69,16.19 11.82,16.19l94.31 0c8.79,0 18.16,-7.39 20.53,-16.19l166.78 -623.08c2.36,-8.79 -3.05,-16.19 -11.84,-16.19z"/>
    <path class="fil4" d="M10042.58 4924.19c-45.01,0 -88.95,9.15 -131.08,27.07 -30.23,13.03 -57.71,30.26 -82,51.36l4.81 -53.45c0.69,-7.75 -4.86,-13.38 -12.61,-13.38l-76.67 0c-9.12,0 -18.16,7.39 -20.53,16.19l-166.8 623.08c-2.36,8.79 2.72,16.19 11.87,16.19l94.28 0c9.15,0 18.14,-7.39 20.5,-16.19l87.58 -327.18c20.56,-76.72 49.33,-131.6 85.33,-163.62 35.59,-31.66 83.79,-47.49 143.61,-47.49 44.33,0 73.76,10.91 88.1,32.37 14.21,21.79 15.17,56.28 2.75,102.72l-107.94 403.19c-2.36,8.79 3.05,16.19 12.23,16.19l94.26 0c8.79,0 18.16,-7.39 20.53,-16.19l108.77 -406.35c22.51,-84.09 18.44,-146.36 -12.28,-185.41 -30.34,-39.05 -85.85,-59.11 -164.69,-59.11z"/>
    <path class="fil4" d="M10820.34 5265.11l-5.28 19.68c-19.79,73.89 -47.57,127.73 -82.08,159.41 -34.32,30.94 -81.48,46.77 -140.56,46.77 -51.03,0 -84.31,-17.56 -100.55,-54.16 -17.09,-37.32 -15.11,-94.67 5.22,-170.62 19.98,-74.64 49.24,-132.65 87.14,-173.12 37.02,-38.36 79.03,-57.35 128.99,-57.35 59.82,0 97.25,16.54 114.51,50.67 17.61,34.13 15.2,94.31 -7.39,178.73zm268.73 -591.07l-94.31 0c-8.79,0 -18.16,7.36 -20.61,16.54l-68.1 254.38 -10.09 48.17c-34.21,-45.73 -88.84,-68.95 -163.45,-68.95 -85.85,0 -162.35,30.97 -227.12,91.45 -63.4,59.47 -110.19,143.56 -138.55,249.46 -28.44,106.24 -26.74,189.28 5.14,247.65 32.26,59.49 92.42,89.75 178.95,89.75 79.86,0 150.54,-26.02 209.92,-77.03l-6.1 51.69c-1.1,8.11 4.31,14.07 12.06,14.07l76.72 0c9.12,0 18.14,-7.39 20.47,-16.19l236.79 -884.47c2.45,-9.18 -2.61,-16.54 -11.73,-16.54z"/>
    <path class="fil4" d="M11258.79 5187.34c18.85,-45.37 44.35,-81.64 75.35,-108 34.57,-29.21 73.23,-43.64 118.99,-43.64 44.71,0 74.09,13.71 90.13,41.85 14.56,25.69 16.65,62.63 6.49,109.78l-290.96 0zm225.58 -263.15c-87.96,0 -167.93,32.01 -237.12,94.64 -68.29,61.91 -116.84,146 -144.63,249.79 -27.67,103.43 -21.57,185.76 18.55,244.85 40.56,58.78 109.86,89.04 205.91,89.04 43.97,0 81.07,-3.19 113.82,-9.84 32.73,-6.71 68.32,-17.26 105.99,-32.04 6.65,-2.45 12.06,-8.08 13.85,-14.76l22.51 -84.12c1.51,-5.63 0,-10.55 -3.38,-13.71 -3.82,-2.78 -9.62,-3.49 -15.2,-1.04 -70.49,26.77 -138.88,40.45 -203.27,40.45 -58.78,0 -99.89,-17.23 -122.42,-51.36 -20.94,-32.04 -25.34,-78.81 -13,-139.32l412.01 0c9.12,0 18.14,-7.36 20.47,-16.19l16.02 -59.82c23.55,-87.94 18.49,-159.71 -14.76,-214.23 -33.94,-54.55 -92.99,-82.33 -175.35,-82.33z"/>
    <path class="fil4" d="M12088.76 5205.64c-48.09,-20.03 -79.61,-35.17 -94.92,-45.04 -14.32,-9.48 -23.74,-18.99 -28.41,-29.18 -3.96,-8.79 -4.2,-19.73 -0.63,-33.09 5.08,-18.99 17.2,-32.7 38.17,-44 23.33,-12.28 56.36,-18.63 97.5,-18.63 48.91,0 100.41,12.7 153.97,37.29 6.82,3.54 17.23,0 23.39,-8.44l53.86 -76.34c2.89,-4.23 4.09,-8.79 3.38,-12.67 -0.27,-4.23 -2.58,-7.36 -5.99,-9.15 -58.34,-27.78 -122.75,-42.21 -191.73,-42.21 -74.94,0 -140.01,15.8 -192,47.13 -54.52,32.73 -89.69,77.38 -104.7,133.36 -8.27,30.94 -8.55,58.37 -1.76,81.59 7.31,22.56 22.01,42.59 43.67,60.18 21.19,16.9 57.63,35.89 111.16,58.07 53.59,23.22 88.05,42.9 103.19,58.75 13.11,14.07 17.23,30.23 12.04,49.6 -7.06,26.38 -22.34,45.4 -47.21,58.07 -27.7,14.04 -65.1,21.08 -111.18,21.08 -29.93,0 -61.14,-4.2 -92.03,-12.31 -30.39,-8.77 -58.61,-20.39 -83.24,-34.79 -4.64,-2.47 -10.58,-2.47 -16.35,0.66 -5.36,2.83 -9.89,8.11 -11.4,13.74l-23.47 87.61c-1.59,5.99 0.14,11.27 4.64,14.07 40.89,27.42 104.67,41.52 190.16,41.52 80.9,0 149.82,-16.9 204.86,-50.32 56.83,-34.82 94.01,-84.45 110.85,-147.43 12.15,-45.37 7.67,-83.73 -12.75,-113.99 -19.95,-29.21 -63.56,-56.99 -133.06,-85.13z"/>
   </g>
   <path class="fil5" d="M9086.03 3054.97l-76.72 0c-54.74,0 -69.11,14.65 -84.83,58.28l-368.67 904.83c-4.07,10.85 -8.66,23.3 -13.55,38.22 -4.34,-14.1 -8.68,-26.57 -13,-38.22l-354.85 -902.94c-16.54,-44.98 -30.89,-60.18 -85.11,-60.18l-190.02 0c-24.68,0 -61.8,0 -61.8,45.01 0,26.55 10.58,73.45 81.04,91.07 1.9,0.55 3.79,0.82 5.69,0.82l11.68 0 0 1023.55c0,48.25 17.61,66.42 65.05,66.42l31.44 0c47.46,0 65.07,-18.16 65.07,-66.42l0 -751.93c0,-27.4 0,-66.14 -1.1,-108.16l355.92 881.53c11.65,31.44 31.71,44.98 67.22,44.98l43.12 0c21.96,0 52.84,-4.62 69.94,-44.46l364.85 -887.74c-0.8,38.22 -1.35,79.69 -1.35,123.88l0 741.9c0,47.18 19.24,66.42 66.67,66.42l29.84 0c47.43,0 65.05,-18.16 65.05,-66.42l0 -1087c0,-56.11 -16.82,-73.45 -71.56,-73.45z"/>
   <path class="fil5" d="M10051.84 4152c-385.19,0 -426.65,-338.31 -426.65,-483.59 0,-141.49 33.88,-261.03 97.86,-346.17 73.45,-97.58 184.06,-147.18 328.8,-147.18 145.31,0 255.89,49.6 328.83,147.18 62.87,84.31 96.23,204.12 96.23,346.17 0,139.6 -33.09,256.72 -95.71,339.38 -72.35,95.69 -183.24,144.21 -329.35,144.21zm264.03 -1079.69c-76.7,-32.51 -165.62,-49.05 -264.03,-49.05 -97.86,0 -186.75,16.54 -263.2,49.05 -74,31.19 -137.43,77.27 -188.4,136.63 -95.96,112.5 -146.63,271.89 -146.63,461.09 0,187.58 49.88,343.99 144.46,452.98 104.09,119.81 256.99,180.52 453.78,180.52 379.22,0 596.92,-230.94 596.92,-633.5 0,-189.75 -50.43,-349.13 -145.59,-461.09 -50.4,-59.36 -113.57,-105.44 -187.3,-136.63z"/>
   <path class="fil5" d="M12110.09 3054.97l-76.72 0c-54.47,0 -69.11,14.65 -85.11,58.28l-368.12 904.83c-4.34,10.85 -8.93,23.58 -13.82,38.22 -4.34,-14.1 -8.41,-26.57 -13,-38.22l-354.85 -902.94c-16.27,-44.98 -30.89,-60.18 -85.11,-60.18l-190.02 0c-24.68,0 -61.53,0 -61.53,45.01 0,26.55 10.3,73.45 80.76,91.07 1.9,0.55 3.82,0.82 5.72,0.82l11.65 0 0 1023.55c0,48.25 17.61,66.42 65.05,66.42l31.71 0c47.46,0 64.8,-18.16 64.8,-66.42l0 -751.93c0,-27.4 0,-66.14 -0.82,-108.16l355.92 881.53c11.38,31.44 31.44,44.98 66.69,44.98l43.36 0c21.96,0 52.87,-4.62 69.94,-44.46l364.85 -887.74c-1.07,37.95 -1.35,79.42 -1.35,123.88l0 741.9c0,47.18 19.24,66.42 66.69,66.42l30.09 0c47.16,0 64.77,-18.16 64.77,-66.42l0 -1087c0,-56.11 -16.54,-73.45 -71.56,-73.45z"/>
   <path class="fil5" d="M13154.52 3206.77c43.36,0 77.52,-10.3 101.92,-30.89 22.51,-18.99 34.71,-45.81 34.71,-75.9 0,-45.01 -36.05,-45.01 -59.91,-45.01l-685.27 0c-23.58,0 -59.63,0 -59.63,45.01 0,26.27 10.28,73.18 79.14,91.07 1.62,0.55 3.52,0.82 5.69,0.82l11.65 0 0 1021.65c0,57.46 25.23,68.32 71.83,68.32l560.04 0c49.05,0 66.69,-16.54 66.69,-63.42l0 -24.95c0,-46.88 -17.64,-63.42 -66.69,-63.42l-465.15 0 0 -409.86 310.11 0c99.48,0 134.98,-57.74 134.98,-106.51 0,-45.29 -36.05,-45.29 -59.91,-45.29l-385.19 0 0 -361.61 404.97 0z"/>
   <path class="fil5" d="M13990.24 3568.11c-19.51,-7.31 -39.32,-14.37 -56.66,-20.58 -126.6,-45.56 -226.6,-81.62 -226.6,-198.98 0,-53.39 17.07,-92.44 52.29,-118.99 37.7,-28.47 95.69,-42.84 172.68,-42.84 118.19,0 185.96,21.43 268.89,52.05l0.55 0c11.38,4.07 20.06,5.69 27.64,5.69 37.95,0 37.95,-38.47 37.95,-50.95 0,-29.29 -6.24,-66.69 -53.94,-98.13l-0.55 -0.27c-66.39,-39.85 -167.52,-61.8 -285.68,-61.8 -117.39,0 -210.91,25.75 -277.6,76.45 -73.45,55.84 -110.58,138.25 -110.58,245.31 0,209.81 168.07,285.43 340.2,345.34 123.6,45.26 251.28,92.17 251.28,248.03 0,69.66 -24.13,122.26 -72.11,156.14 -43.64,30.89 -107.89,47.43 -185.96,47.43 -105.17,0 -211.43,-27.37 -307.39,-78.89 -0.27,-0.25 -0.55,-0.52 -0.82,-0.52 -17.07,-8.13 -29.54,-13.03 -41.19,-13.03 -14.65,0 -39.05,7.06 -39.05,53.67 0,55.84 27.67,93.54 92.72,125.78 77.25,39.85 193.82,64.52 304.15,64.52 133.91,0 238.53,-31.71 310.08,-94.34 71.86,-62.6 108.16,-152.32 108.16,-267.27 0,-105.72 -31.16,-188.13 -94.59,-252.35 -62.63,-62.9 -147.21,-97.88 -213.88,-121.46z"/>
   <path class="fil5" d="M14976.94 3568.11c-19.51,-7.31 -39.32,-14.37 -56.94,-20.58 -126.3,-45.56 -226.32,-81.62 -226.32,-198.98 0,-53.39 17.07,-92.44 52.57,-118.99 37.43,-28.47 95.44,-42.84 172.41,-42.84 118.19,0 185.96,21.43 268.64,52.05l0.8 0c11.65,4.07 20.06,5.69 27.64,5.69 37.95,0 37.95,-38.47 37.95,-50.95 0,-29.29 -5.96,-66.69 -53.94,-98.13l-0.52 -0.27c-66.69,-39.85 -167.79,-61.8 -285.46,-61.8 -117.64,0 -211.16,25.75 -277.82,76.45 -73.48,55.84 -110.61,138.25 -110.61,245.31 0,209.81 168.07,285.43 340.45,345.34 123.63,45.53 251.3,92.17 251.3,248.03 0,69.66 -24.13,122.26 -72.38,156.14 -43.36,30.89 -107.89,47.43 -185.96,47.43 -105.17,0 -211.43,-27.37 -307.39,-78.89l-1.1 -0.52c-16.79,-8.13 -29.27,-13.03 -41.19,-13.03 -14.37,0 -38.77,7.06 -38.77,53.67 0,55.84 27.67,93.54 92.72,125.78 77.52,39.85 193.82,64.52 303.87,64.52 134.18,0 238.53,-31.71 310.63,-94.34 71.59,-62.6 107.89,-152.32 107.89,-267.27 0,-105.72 -30.89,-188.13 -94.59,-252.35 -62.35,-62.9 -147.21,-97.88 -213.88,-121.46z"/>
   <path class="fil5" d="M16076.93 4152c-384.91,0 -426.38,-338.31 -426.38,-483.59 0,-141.49 33.61,-261.03 97.58,-346.17 73.45,-97.58 184.31,-147.18 328.8,-147.18 145.29,0 255.89,49.6 328.83,147.18 63.15,84.31 96.48,204.12 96.48,346.17 0,139.6 -33.06,256.72 -95.69,339.38 -72.63,95.69 -183.51,144.21 -329.62,144.21zm451.61 -943.06c-50.7,-59.36 -113.57,-105.44 -187.58,-136.63 -76.72,-32.51 -165.62,-49.05 -264.03,-49.05 -97.86,0 -186.23,16.54 -263.2,49.05 -73.73,31.19 -137.15,77.27 -188.4,136.63 -95.69,112.5 -146.63,271.89 -146.63,461.09 0,187.58 49.88,343.99 144.46,452.98 104.09,119.81 256.99,180.52 453.78,180.52 379.5,0 596.89,-230.94 596.89,-633.5 0,-189.75 -50.4,-349.13 -145.29,-461.09z"/>
   <path class="fil5" d="M9085.75 1221.46l-76.45 0c-54.74,0 -69.11,14.65 -85.11,58.01l-368.4 905.11c-4.07,10.58 -8.66,23.3 -13.55,38.22 -4.34,-14.37 -8.68,-26.85 -13,-38.22l-354.85 -902.94c-16.54,-45.26 -31.16,-60.18 -85.11,-60.18l-190.3 0c-24.4,0 -61.53,0 -61.53,45.01 0,26.27 10.58,73.18 81.31,91.07 1.62,0.27 3.52,0.55 5.41,0.55l11.68 0 0 1023.27c0,48.53 17.61,66.69 65.05,66.69l31.44 0c47.46,0 65.07,-18.16 65.07,-66.69l0 -751.66c0,-27.4 0,-66.14 -1.1,-107.89l355.92 881.25c11.38,31.71 31.44,44.98 67.22,44.98l43.12 0c21.68,0 52.6,-4.62 69.94,-44.46l364.85 -887.47c-0.8,37.95 -1.35,79.14 -1.35,123.6l0 741.63c0,47.46 19.24,66.69 66.67,66.69l29.84 0c47.43,0 65.05,-18.16 65.05,-66.69l0 -1086.72c0,-56.11 -16.82,-73.18 -71.83,-73.18z"/>
   <path class="fil5" d="M9656.07 1221.46l-128.47 0c-24.4,0 -61.53,0 -61.53,45.01 0,26.27 10.55,73.18 81.04,91.07 1.62,0.27 3.52,0.55 5.69,0.55l9.76 0 0 1021.65c0,49.08 19.26,68.32 68.32,68.32l31.99 0c49.05,0 68.04,-19.24 68.04,-68.32l0 -1083.45c0,-51.77 -10.85,-74.83 -74.83,-74.83z"/>
   <path class="fil5" d="M10742.8 1594.72c0,159.14 -93.79,240.17 -278.37,240.17l-161.83 0 0 -465.15 161.83 0c89.72,0 159.11,18.44 206.02,54.74 47.98,37.7 72.35,94.61 72.35,170.24zm191.65 733.52c-21.41,0 -35.5,0 -60.98,-46.08l-180.54 -334.49c66.69,-25.23 119.81,-63.73 157.24,-113.88 45.81,-61.53 69.11,-141.22 69.11,-237.45 0,-123.6 -44.19,-219.56 -131.19,-285.16 -78.35,-58.56 -190.02,-89.72 -323.66,-89.72l-365.13 0c-24.68,0 -61.56,0 -61.56,45.01 0,26.27 10.3,73.18 81.07,91.07 1.9,0.27 3.79,0.55 5.69,0.55l11.38 0 0 1021.65c0,50.43 17.89,68.32 68.59,68.32l31.44 0c55.84,0 66.69,-24.95 66.69,-68.32l0 -396.84 161.83 0c22.75,0 45.81,-1.1 66.14,-2.17l189.75 364.85c40.37,78.62 83.76,109.26 155.87,109.26 101.92,0 110.06,-67.77 110.06,-88.38 0,-38.22 -37.7,-38.22 -51.8,-38.22z"/>
   <path class="fil5" d="M11376.02 1221.46l-128.19 0c-24.68,0 -61.8,0 -61.8,45.01 0,26.27 10.55,73.18 81.04,91.07 1.9,0.27 3.79,0.55 5.69,0.55l10.03 0 0 1021.65c0,49.08 19.24,68.32 68.32,68.32l31.71 0c49.05,0 68.32,-19.24 68.32,-68.32l0 -1083.45c0,-51.77 -10.85,-74.83 -75.1,-74.83z"/>
   <path class="fil5" d="M14229.86 1221.46l-77 0c-54.74,0 -69.11,14.65 -84.83,58.01l-368.4 905.11c-4.34,10.58 -8.66,23.3 -13.82,38.22 -4.34,-14.37 -8.41,-26.85 -12.72,-38.22l-355.12 -902.94c-16.52,-45.26 -30.89,-60.18 -85.11,-60.18l-190.02 0c-24.68,0 -61.53,0 -61.53,45.01 0,26.27 10.3,73.18 80.76,91.07 1.9,0.27 3.79,0.55 5.72,0.55l11.93 0 0 1023.27c0,48.53 17.61,66.69 64.77,66.69l31.71 0c47.46,0 65.07,-18.16 65.07,-66.69l0 -751.66c0,-27.4 -0.27,-66.42 -1.1,-107.89l355.92 881.25c11.38,31.71 31.44,44.98 66.69,44.98l43.64 0c21.68,0 52.6,-4.62 69.94,-44.46l364.85 -887.47c-1.07,37.95 -1.62,79.14 -1.62,123.6l0 741.63c0,47.46 19.51,66.69 66.69,66.69l30.09 0c47.43,0 64.77,-18.16 64.77,-66.69l0 -1086.72c0,-56.11 -16.54,-73.18 -71.28,-73.18z"/>
   <path class="fil5" d="M12354.61 1270.78c-13.58,-33.33 -27.92,-49.33 -73.48,-49.33l-178.34 0c-23.85,0 -59.91,0 -59.91,45.01 0,26.27 10.55,73.18 80.76,91.07 1.9,0.27 4.07,0.55 5.96,0.55l0.82 0 -394.69 1020.3c-7.31,20.06 -6.49,36.6 2.72,49.88 8.96,13 24.68,19.79 45.81,19.79l46.91 0c39.02,0 60.7,-7.58 76.7,-51.77l351.3 -933.85 348.61 932.23 0.27 0.8c16.27,38.77 30.09,52.6 74.8,52.6l51.77 0c20.88,0 35.78,-6.24 44.74,-19.24 8.93,-13.03 9.76,-30.09 1.9,-50.7l-426.65 -1107.33z"/>
  </g>
 </g>
</svg>
