<svg width="191" height="190" viewBox="0 0 191 190" fill="none" xmlns="http://www.w3.org/2000/svg">
<path d="M95.5 0L103.046 55.1342L129.999 6.4489L117.118 60.5858L159.838 24.9247L128.271 70.7528L180.988 52.932L134.997 84.262L190.593 86.6884L136.39 99.289L187.354 121.635L132.26 113.804L171.711 153.052L123.165 125.847L145.774 176.696L110.334 133.792L113.048 189.374L95.5 136.565L77.9519 189.374L80.6656 133.792L45.2257 176.696L67.8347 125.847L19.2894 153.052L58.7401 113.804L3.64565 121.635L54.6102 99.289L0.407387 86.6884L56.0026 84.262L10.0119 52.932L62.7294 70.7528L31.1621 24.9247L73.8821 60.5858L61.0014 6.4489L87.9543 55.1342L95.5 0Z" fill="#275AF2"/>
</svg>
