<svg width="304" height="100" viewBox="0 0 304 100" fill="none" xmlns="http://www.w3.org/2000/svg">
<path fill-rule="evenodd" clip-rule="evenodd" d="M289.599 66.3048C296.841 60.6726 300 55.1296 300 50C300 44.8704 296.841 39.3274 289.599 33.6952C282.409 28.1029 271.754 22.8929 258.23 18.4444C245.347 14.2063 230.061 10.7243 213.072 8.24164C243.153 17.1862 263 32.5491 263 50C263 67.4509 243.153 82.8138 213.072 91.7584C230.061 89.2757 245.347 85.7937 258.23 81.5556C271.754 77.1071 282.409 71.8971 289.599 66.3048ZM152 4C157.983 4 164.151 8.21256 169.046 16.6515C173.881 24.9883 177 36.7699 177 50C177 63.2301 173.881 75.0117 169.046 83.3485C164.151 91.7874 157.983 96 152 96C146.017 96 139.849 91.7874 134.954 83.3485C130.119 75.0117 127 63.2301 127 50C127 36.7699 130.119 24.9883 134.954 16.6515C139.849 8.21256 146.017 4 152 4ZM163.76 95.7182C173.917 87.9404 181 70.3964 181 50C181 29.6036 173.917 12.0596 163.76 4.2818C189.235 5.51024 211.946 10.6791 228.846 18.2917C248.681 27.2263 259 38.7452 259 50C259 61.2548 248.681 72.7737 228.846 81.7083C211.946 89.3209 189.235 94.4898 163.76 95.7182ZM152 100C235.947 100 304 77.6142 304 50C304 22.3858 235.947 0 152 0C68.0527 0 0 22.3858 0 50C0 77.6142 68.0527 100 152 100ZM140.24 4.2818C114.765 5.51024 92.0541 10.6791 75.154 18.2917C55.3191 27.2263 45 38.7452 45 50C45 61.2548 55.3191 72.7737 75.154 81.7083C92.0541 89.3209 114.765 94.4898 140.24 95.7182C130.083 87.9404 123 70.3964 123 50C123 29.6036 130.083 12.0596 140.24 4.2818ZM41 50C41 67.4509 60.847 82.8138 90.9281 91.7584C73.9395 89.2757 58.6533 85.7937 45.7697 81.5556C32.2461 77.1071 21.5913 71.8971 14.4006 66.3048C7.15862 60.6726 4 55.1296 4 50C4 44.8704 7.15862 39.3274 14.4006 33.6952C21.5913 28.1029 32.2461 22.8929 45.7697 18.4444C58.6533 14.2063 73.9395 10.7243 90.9281 8.24164C60.847 17.1862 41 32.5491 41 50Z" fill="#275AF2"/>
</svg>
