<svg width="210" height="210" viewBox="0 0 210 210" fill="none" xmlns="http://www.w3.org/2000/svg">
<path fill-rule="evenodd" clip-rule="evenodd" d="M90.2446 2.6918C90.7262 3.17337 91.1602 3.93718 91.3717 5.16218C91.5837 6.38992 91.5412 7.92869 91.1994 9.7625C90.904 11.347 90.3953 13.1002 89.6827 14.9984C78.1985 19.4117 62.1059 30.8305 46.4682 46.4681C30.8306 62.1058 19.4117 78.1985 14.9984 89.6826C13.1003 90.3952 11.3471 90.9038 9.76262 91.1992C7.9288 91.5411 6.39004 91.5836 5.1623 91.3716C3.9373 91.1601 3.17348 90.726 2.69191 90.2445C2.21035 89.7629 1.77632 88.9991 1.56482 87.7741C1.35284 86.5464 1.39526 85.0076 1.73716 83.1738C2.41967 79.5129 4.24079 74.9506 7.08464 69.7832C12.7633 59.4648 22.4046 46.9379 34.6713 34.6712C46.938 22.4045 59.4649 12.7632 69.7833 7.08452C74.9507 4.24067 79.513 2.41955 83.1739 1.73704C85.0077 1.39515 86.5465 1.35273 87.7742 1.5647C88.9992 1.77621 89.763 2.21023 90.2446 2.6918ZM14.3404 91.5164C8.64965 93.4063 4.27389 93.3692 1.92052 91.0159C-5.21525 83.8801 8.94476 58.1507 33.5478 33.5477C58.1508 8.94464 83.8802 -5.21537 91.016 1.92041C93.3694 4.27379 93.4064 8.64956 91.5165 14.3403C97.2073 12.4504 101.583 12.4875 103.936 14.8409C106.29 17.1943 106.327 21.57 104.437 27.2608C110.128 25.3709 114.503 25.408 116.857 27.7613C119.21 30.1147 119.247 34.4905 117.357 40.1813C123.048 38.2913 127.424 38.3284 129.777 40.6818C132.131 43.0352 132.168 47.4109 130.278 53.1017C135.969 51.2118 140.344 51.2489 142.698 53.6023C145.051 55.9556 145.088 60.3314 143.198 66.0222C148.889 64.1323 153.265 64.1694 155.618 66.5227C157.972 68.8761 158.009 73.2519 156.119 78.9426C161.81 77.0528 166.185 77.0898 168.539 79.4432C170.892 81.7966 170.929 86.1724 169.039 91.8632C174.73 89.9732 179.106 90.0103 181.459 92.3637C183.813 94.7171 183.85 99.0928 181.96 104.784C187.651 102.894 192.026 102.931 194.38 105.284C196.733 107.638 196.77 112.013 194.88 117.704C200.571 115.814 204.947 115.851 207.3 118.205C214.436 125.34 200.276 151.07 175.673 175.673C151.07 200.276 125.34 214.436 118.205 207.3C115.851 204.947 115.814 200.571 117.704 194.88C112.013 196.77 107.638 196.733 105.284 194.38C102.931 192.026 102.894 187.65 104.784 181.96C99.093 183.85 94.7173 183.813 92.3639 181.459C90.0105 179.106 89.9734 174.73 91.8634 169.039C86.1725 170.929 81.7966 170.892 79.4432 168.539C77.0898 166.185 77.0528 161.81 78.9427 156.119C73.2519 158.009 68.8762 157.972 66.5228 155.618C64.1694 153.265 64.1324 148.889 66.0223 143.198C60.3315 145.088 55.9558 145.051 53.6024 142.698C51.249 140.344 51.2119 135.969 53.1019 130.278C47.4111 132.168 43.0354 132.131 40.682 129.777C38.3286 127.424 38.2915 123.048 40.1815 117.357C34.4906 119.247 30.1147 119.21 27.7613 116.857C25.408 114.503 25.3709 110.128 27.2608 104.437C21.5701 106.327 17.1943 106.29 14.8409 103.936C12.4876 101.583 12.4505 97.2072 14.3404 91.5164ZM119.538 194.222C118.825 196.12 118.317 197.874 118.021 199.458C117.679 201.292 117.637 202.831 117.849 204.058C118.06 205.283 118.495 206.047 118.976 206.529C119.458 207.01 120.221 207.444 121.446 207.656C122.674 207.868 124.213 207.825 126.047 207.483C129.708 206.801 134.27 204.98 139.437 202.136C149.756 196.457 162.283 186.816 174.549 174.549C186.816 162.283 196.457 149.756 202.136 139.437C204.98 134.27 206.801 129.708 207.484 126.047C207.825 124.213 207.868 122.674 207.656 121.446C207.444 120.221 207.01 119.458 206.529 118.976C206.047 118.494 205.283 118.06 204.058 117.849C202.831 117.637 201.292 117.679 199.458 118.021C197.874 118.317 196.12 118.825 194.222 119.538C189.809 131.022 178.39 147.115 162.752 162.752C147.115 178.39 131.022 189.809 119.538 194.222ZM192.259 120.326C191.432 122.267 190.415 124.338 189.216 126.517C183.537 136.835 173.896 149.362 161.629 161.629C149.362 173.896 136.835 183.537 126.517 189.215C124.338 190.414 122.267 191.432 120.326 192.258C121.153 190.317 122.17 188.246 123.369 186.067C129.047 175.749 138.689 163.222 150.955 150.955C163.222 138.689 175.749 129.047 186.068 123.369C188.246 122.17 190.317 121.153 192.259 120.326ZM193.046 118.362C193.759 116.464 194.268 114.711 194.563 113.126C194.905 111.292 194.947 109.754 194.735 108.526C194.524 107.301 194.09 106.537 193.608 106.056C193.127 105.574 192.363 105.14 191.138 104.928C189.91 104.716 188.371 104.759 186.538 105.101C184.953 105.396 183.2 105.905 181.302 106.617C176.898 118.077 165.518 134.126 149.932 149.732C165.538 134.146 181.587 122.766 193.046 118.362ZM149.732 149.932C134.146 165.538 122.766 181.587 118.362 193.046C116.464 193.759 114.711 194.268 113.126 194.563C111.293 194.905 109.754 194.947 108.526 194.735C107.301 194.524 106.537 194.09 106.056 193.608C105.574 193.127 105.14 192.363 104.929 191.138C104.717 189.91 104.759 188.371 105.101 186.538C105.396 184.953 105.905 183.2 106.618 181.302C118.077 176.898 134.126 165.518 149.732 149.932ZM181.643 100.206C181.347 101.79 180.839 103.544 180.126 105.442C168.642 109.855 152.549 121.274 136.912 136.911C121.274 152.549 109.855 168.642 105.442 180.126C103.544 180.838 101.79 181.347 100.206 181.643C98.3722 181.984 96.8334 182.027 95.6057 181.815C94.3806 181.603 93.6168 181.169 93.1353 180.688C92.6537 180.206 92.2197 179.442 92.0082 178.217C91.7962 176.99 91.8386 175.451 92.1805 173.617C92.4759 172.033 92.9846 170.279 93.6972 168.381C105.181 163.968 121.274 152.549 136.911 136.911C152.549 121.274 163.968 105.181 168.381 93.697C170.279 92.9844 172.033 92.4757 173.617 92.1803C175.451 91.8384 176.99 91.796 178.218 92.008C179.443 92.2195 180.206 92.6535 180.688 93.1351C181.17 93.6166 181.604 94.3804 181.815 95.6054C182.027 96.8332 181.985 98.372 181.643 100.206ZM110.448 173.147C109.249 175.326 108.232 177.397 107.405 179.338C109.347 178.511 111.418 177.494 113.597 176.295C123.915 170.616 136.442 160.975 148.709 148.708C160.975 136.442 170.617 123.915 176.295 113.596C177.494 111.418 178.511 109.347 179.338 107.405C177.397 108.232 175.326 109.249 173.147 110.448C162.829 116.127 150.302 125.768 138.035 138.035C125.768 150.302 116.127 162.829 110.448 173.147ZM166.417 94.485C165.591 96.4262 164.574 98.4973 163.375 100.676C157.696 110.994 148.055 123.521 135.788 135.788C123.521 148.055 110.994 157.696 100.676 163.375C98.4973 164.573 96.4264 165.591 94.4851 166.417C95.3118 164.476 96.329 162.405 97.528 160.226C103.207 149.908 112.848 137.381 125.115 125.114C137.381 112.848 149.908 103.206 160.227 97.5278C162.405 96.3288 164.476 95.3117 166.417 94.485ZM167.205 92.5213C155.721 96.9346 139.629 108.353 123.991 123.991C108.354 139.629 96.9348 155.721 92.5214 167.205C90.6232 167.918 88.8698 168.427 87.2853 168.722C85.4515 169.064 83.9127 169.106 82.685 168.894C81.46 168.683 80.6962 168.249 80.2146 167.767C79.7331 167.286 79.299 166.522 79.0875 165.297C78.8755 164.069 78.918 162.53 79.2598 160.697C79.5552 159.112 80.0639 157.359 80.7765 155.461C92.2607 151.047 108.353 139.629 123.991 123.991C139.629 108.353 151.047 92.2606 155.461 80.7765C157.359 80.0639 159.112 79.5552 160.697 79.2598C162.53 78.9179 164.069 78.8755 165.297 79.0875C166.522 79.299 167.286 79.733 167.767 80.2146C168.249 80.6962 168.683 81.46 168.894 82.685C169.106 83.9127 169.064 85.4515 168.722 87.2853C168.427 88.8698 167.918 90.6231 167.205 92.5213ZM155.802 74.3648C155.506 75.9493 154.998 77.7026 154.285 79.6007C142.824 84.0049 126.774 95.3858 111.167 110.974C126.755 95.3666 138.136 79.3165 142.54 67.856C144.438 67.1434 146.192 66.6347 147.776 66.3394C149.61 65.9975 151.149 65.955 152.377 66.167C153.602 66.3785 154.365 66.8126 154.847 67.2941C155.328 67.7757 155.762 68.5395 155.974 69.7645C156.186 70.9922 156.144 72.531 155.802 74.3648ZM67.8561 142.54C79.3166 138.136 95.3667 126.755 110.974 111.167C95.3859 126.774 84.005 142.824 79.6007 154.285C77.7026 154.997 75.9493 155.506 74.3649 155.802C72.5311 156.143 70.9923 156.186 69.7646 155.974C68.5396 155.762 67.7758 155.328 67.2942 154.847C66.8126 154.365 66.3786 153.601 66.1671 152.376C65.9551 151.149 65.9976 149.61 66.3394 147.776C66.6348 146.192 67.1435 144.438 67.8561 142.54ZM84.6073 147.306C83.4083 149.485 82.3911 151.556 81.5644 153.497C83.5057 152.67 85.5768 151.653 87.7555 150.454C98.0739 144.775 110.601 135.134 122.867 122.867C135.134 110.601 144.775 98.0738 150.454 87.7554C151.653 85.5767 152.67 83.5057 153.497 81.5644C151.556 82.3911 149.485 83.4083 147.306 84.6073C136.988 90.286 124.461 99.9273 112.194 112.194C99.9273 124.461 90.286 136.988 84.6073 147.306ZM140.577 68.6439C139.75 70.5852 138.733 72.6563 137.534 74.8349C131.855 85.1533 122.214 97.6802 109.947 109.947C97.6804 122.214 85.1535 131.855 74.8351 137.534C72.6564 138.733 70.5853 139.75 68.644 140.577C69.4707 138.635 70.4879 136.564 71.6869 134.386C77.3656 124.067 87.0069 111.54 99.2736 99.2735C111.54 87.0068 124.067 77.3655 134.386 71.6868C136.564 70.4878 138.635 69.4706 140.577 68.6439ZM141.365 66.6802C142.077 64.7821 142.586 63.0288 142.881 61.4444C143.223 59.6105 143.266 58.0718 143.054 56.844C142.842 55.619 142.408 54.8552 141.926 54.3737C141.445 53.8921 140.681 53.4581 139.456 53.2466C138.228 53.0346 136.69 53.077 134.856 53.4189C133.271 53.7143 131.518 54.223 129.62 54.9355C125.216 66.3961 113.835 82.4462 98.2466 98.0535C113.854 82.4654 129.904 71.0844 141.365 66.6802ZM98.0536 98.2465C82.4655 113.854 71.0845 129.904 66.6803 141.364C64.7822 142.077 63.0289 142.586 61.4445 142.881C59.6107 143.223 58.0719 143.265 56.8442 143.053C55.6192 142.842 54.8554 142.408 54.3738 141.926C53.8922 141.445 53.4582 140.681 53.2467 139.456C53.0347 138.228 53.0772 136.689 53.419 134.856C53.7144 133.271 54.2231 131.518 54.9357 129.62C66.3962 125.216 82.4463 113.835 98.0536 98.2465ZM129.961 48.5239C129.665 50.1083 129.157 51.8616 128.444 53.7597C116.96 58.173 100.867 69.5919 85.2297 85.2295C69.592 100.867 58.1732 116.96 53.7599 128.444C51.8618 129.157 50.1085 129.665 48.5241 129.961C46.6903 130.303 45.1515 130.345 43.9238 130.133C42.6988 129.921 41.935 129.487 41.4534 129.006C40.9718 128.524 40.5378 127.76 40.3263 126.535C40.1143 125.308 40.1567 123.769 40.4986 121.935C40.794 120.351 41.3027 118.597 42.0153 116.699C53.4994 112.286 69.592 100.867 85.2295 85.2295C100.867 69.5919 112.286 53.4993 116.699 42.0152C118.597 41.3025 120.351 40.7938 121.935 40.4984C123.769 40.1565 125.308 40.1141 126.536 40.3261C127.761 40.5376 128.524 40.9716 129.006 41.4532C129.488 41.9348 129.922 42.6986 130.133 43.9236C130.345 45.1513 130.303 46.6901 129.961 48.5239ZM58.7665 121.465C57.5675 123.644 56.5503 125.715 55.7236 127.656C57.6649 126.829 59.736 125.812 61.9146 124.613C72.2331 118.934 84.7599 109.293 97.0267 97.0265C109.293 84.7597 118.935 72.2329 124.613 61.9144C125.812 59.7358 126.83 57.6647 127.656 55.7234C125.715 56.5502 123.644 57.5674 121.465 58.7664C111.147 64.4451 98.6199 74.0863 86.3532 86.353C74.0865 98.6198 64.4452 111.147 58.7665 121.465ZM114.736 42.8031C113.909 44.7444 112.892 46.8154 111.693 48.994C106.014 59.3124 96.3727 71.8393 84.106 84.106C71.8393 96.3728 59.3124 106.014 48.994 111.693C46.8154 112.892 44.7445 113.909 42.8032 114.736C43.6299 112.794 44.6471 110.723 45.8461 108.545C51.5248 98.2262 61.1661 85.6993 73.4328 73.4326C85.6995 61.1659 98.2264 51.5246 108.545 45.8459C110.723 44.647 112.794 43.6298 114.736 42.8031ZM115.524 40.8394C104.039 45.2528 87.9468 56.6715 72.3093 72.3091C56.6717 87.9467 45.2529 104.039 40.8395 115.523C38.9413 116.236 37.1879 116.745 35.6034 117.04C33.7696 117.382 32.2309 117.424 31.0031 117.213C29.7781 117.001 29.0143 116.567 28.5327 116.085C28.0512 115.604 27.6171 114.84 27.4056 113.615C27.1937 112.387 27.2361 110.849 27.578 109.015C27.8734 107.43 28.3821 105.677 29.0946 103.779C40.5788 99.3656 56.6715 87.9467 72.3091 72.3091C87.9468 56.6714 99.3656 40.5788 103.779 29.0946C105.677 28.382 107.43 27.8734 109.015 27.578C110.849 27.2361 112.387 27.1937 113.615 27.4056C114.84 27.6171 115.604 28.0512 116.085 28.5327C116.567 29.0143 117.001 29.7781 117.213 31.0031C117.424 32.2309 117.382 33.7696 117.04 35.6034C116.745 37.1879 116.236 38.9412 115.524 40.8394ZM104.12 22.683C103.824 24.2674 103.316 26.0207 102.603 27.9188C91.1434 32.3227 75.0947 43.7023 59.4885 59.2888C75.0749 43.6825 86.4546 27.6339 90.8585 16.1741C92.7566 15.4616 94.5099 14.9529 96.0943 14.6575C97.9281 14.3156 99.4669 14.2732 100.695 14.4852C101.92 14.6967 102.683 15.1307 103.165 15.6123C103.647 16.0938 104.081 16.8577 104.292 18.0827C104.504 19.3104 104.462 20.8492 104.12 22.683ZM16.1742 90.8584C27.6339 86.4545 43.6825 75.0749 59.2888 59.4885C43.7023 75.0947 32.3228 91.1434 27.9188 102.603C26.0207 103.316 24.2675 103.824 22.683 104.12C20.8492 104.462 19.3104 104.504 18.0827 104.292C16.8577 104.081 16.0939 103.647 15.6123 103.165C15.1308 102.683 14.6967 101.92 14.4852 100.695C14.2733 99.4668 14.3157 97.9281 14.6576 96.0942C14.953 94.5098 15.4616 92.7565 16.1742 90.8584ZM32.9255 95.6242C31.7265 97.8028 30.7092 99.8739 29.8825 101.815C31.8238 100.988 33.8949 99.9712 36.0736 98.7722C46.392 93.0935 58.9189 83.4523 71.1856 71.1856C83.4523 58.9188 93.0936 46.3919 98.7723 36.0735C99.9713 33.8949 100.988 31.8238 101.815 29.8825C99.8739 30.7092 97.8028 31.7265 95.6242 32.9255C85.3058 38.6041 72.7789 48.2454 60.5121 60.5121C48.2454 72.7789 38.6041 85.3058 32.9255 95.6242ZM88.8948 16.9621C88.0681 18.9034 87.0509 20.9744 85.8519 23.1531C80.1732 33.4715 70.5319 45.9984 58.2652 58.2651C45.9985 70.5318 33.4716 80.1731 23.1532 85.8517C20.9745 87.0508 18.9034 88.068 16.9621 88.8947C17.7888 86.9534 18.806 84.8823 20.005 82.7037C25.6837 72.3853 35.325 59.8584 47.5917 47.5917C59.8584 35.3249 72.3853 25.6837 82.7037 20.005C84.8824 18.806 86.9535 17.7888 88.8948 16.9621Z" fill="#275AF2"/>
</svg>
