<svg width="139" height="139" viewBox="0 0 139 139" fill="none" xmlns="http://www.w3.org/2000/svg">
<path fill-rule="evenodd" clip-rule="evenodd" d="M139 34.75C139 30.1866 138.101 25.6678 136.355 21.4517C134.608 17.2357 132.049 13.4049 128.822 10.178C125.595 6.9512 121.764 4.39154 117.548 2.64519C113.332 0.898835 108.813 0 104.25 0V34.75C104.25 25.5337 100.589 16.6949 94.072 10.178C87.5551 3.66115 78.7163 0 69.5 0C60.2837 0 51.4449 3.66115 44.928 10.178C38.415 16.6911 34.7543 25.5233 34.75 34.7337L34.75 4.55691e-06C30.1866 3.95849e-06 25.6678 0.898839 21.4518 2.64519C17.2357 4.39154 13.4049 6.95121 10.178 10.178C6.95121 13.4049 4.39154 17.2357 2.64519 21.4518C0.898841 25.6678 4.95586e-06 30.1866 4.55691e-06 34.75L34.7337 34.75C25.5233 34.7543 16.6911 38.415 10.178 44.928C3.66115 51.4449 0 60.2837 0 69.5C0 78.7163 3.66115 87.5551 10.178 94.072C16.6949 100.589 25.5337 104.25 34.75 104.25H3.03794e-06C2.63899e-06 108.813 0.898838 113.332 2.64519 117.548C4.39154 121.764 6.95121 125.595 10.178 128.822C13.4049 132.049 17.2357 134.608 21.4518 136.355C25.6678 138.101 30.1866 139 34.75 139L34.75 104.25C34.75 113.466 38.4112 122.305 44.928 128.822C51.4449 135.339 60.2837 139 69.5 139C78.7163 139 87.5551 135.339 94.072 128.822C100.589 122.305 104.25 113.466 104.25 104.25V139C108.813 139 113.332 138.101 117.548 136.355C121.764 134.608 125.595 132.049 128.822 128.822C132.049 125.595 134.608 121.764 136.355 117.548C138.101 113.332 139 108.813 139 104.25H104.273C113.481 104.244 122.31 100.583 128.822 94.072C135.339 87.5551 139 78.7163 139 69.5C139 60.2837 135.339 51.4449 128.822 44.928C122.305 38.4112 113.466 34.75 104.25 34.75H139ZM69.5 104.25L104.25 104.25V69.5V34.75H69.5L34.75 34.75V69.5L34.75 104.25L69.5 104.25ZM69.5 104.25C50.3081 104.25 34.75 88.6919 34.75 69.5C34.75 50.3081 50.3081 34.75 69.5 34.75C88.6919 34.75 104.25 50.3081 104.25 69.5C104.25 88.6919 88.6919 104.25 69.5 104.25Z" fill="#275AF2"/>
</svg>
