<svg width="151" height="85" viewBox="0 0 151 85" fill="none" xmlns="http://www.w3.org/2000/svg">
<path fill-rule="evenodd" clip-rule="evenodd" d="M5.85786 72.552C9.60859 80.5223 14.6957 85 20 85L20 42.5V0C14.6957 0 9.60859 4.47767 5.85786 12.448C2.10714 20.4183 9.22364e-08 31.2283 0 42.5C-9.22359e-08 53.7717 2.10714 64.5817 5.85786 72.552ZM49 85C41.3087 85 33.9325 80.5223 28.4939 72.552C23.0553 64.5817 20 53.7717 20 42.5C20 31.2283 23.0553 20.4183 28.4939 12.448C33.9325 4.47767 41.3087 0 49 0L49 42.5L49 85ZM91 42.5V85C79.8609 85 69.178 80.5223 61.3015 72.552C53.425 64.5817 49 53.7717 49 42.5C49 31.2283 53.425 20.4183 61.3015 12.448C69.178 4.47767 79.8609 0 91 0L91 42.5ZM91 42.5C91 31.2283 97.2687 20.4183 108.427 12.448C119.586 4.47767 134.72 0 150.5 0V42.5V85C134.72 85 119.586 80.5223 108.427 72.552C97.2687 64.5817 91 53.7717 91 42.5Z" fill="#275AF2"/>
</svg>
