<svg width="116" height="126" viewBox="0 0 116 126" fill="none" xmlns="http://www.w3.org/2000/svg">
<path fill-rule="evenodd" clip-rule="evenodd" d="M16.9878 90.2392C6.11069 99.5259 -9.32025e-06 112.121 -9.89433e-06 125.255L58 125.255L116 125.255C116 112.121 109.889 99.5259 99.0122 90.2392C88.1458 80.9617 73.4117 75.7456 58.0456 75.7353L116 75.7353C116 66.4648 109.889 57.5739 99.0122 51.0186C88.1664 44.4821 73.4675 40.8018 58.1328 40.7806L116 40.7806C116 34.3795 109.889 28.2406 99.0122 23.7143C88.1351 19.188 73.3825 16.6452 58 16.6452C42.6174 16.6452 27.8649 19.188 16.9878 23.7143C6.11068 28.2406 -1.35514e-05 34.3795 -1.38312e-05 40.7806L57.8672 40.7806C42.5325 40.8018 27.8336 44.4821 16.9878 51.0186C6.11069 57.5739 -1.49539e-05 66.4648 -1.53592e-05 75.7353L57.9544 75.7353C42.5883 75.7456 27.8542 80.9617 16.9878 90.2392ZM16.9878 4.87524C6.11068 7.99681 -1.25833e-05 12.2306 -1.27762e-05 16.6451L58 16.6451L116 16.6451C116 12.2306 109.889 7.99682 99.0122 4.87525C88.1351 1.75368 73.3825 -1.94048e-06 58 -2.53526e-06C42.6174 -3.13004e-06 27.8649 1.75368 16.9878 4.87524Z" fill="#275AF2"/>
</svg>
