<svg width="251" height="137" viewBox="0 0 251 137" fill="none" xmlns="http://www.w3.org/2000/svg">
<path fill-rule="evenodd" clip-rule="evenodd" d="M73.1399 20.5907C73.1399 24.9416 69.8666 29.4489 63.3357 33.0112C56.9084 36.517 47.8664 38.7589 37.7496 38.7589C30.96 38.7589 24.6545 37.7492 19.2986 36.0253C24.6331 30.9489 31.2238 26.2496 38.9133 22.0553C47.189 17.5413 56.6647 13.6592 67.0668 10.5655C71.113 13.6463 73.1399 17.1669 73.1399 20.5907ZM64.513 8.84347C44.5098 15.039 27.9502 24.1596 16.789 35.1389C16.2206 34.9194 15.6653 34.6914 15.1237 34.4553C20.2115 29.2723 26.7215 24.4894 34.4655 20.2654C43.0682 15.573 53.1005 11.6307 64.1901 8.65237C64.2987 8.7158 64.4064 8.7795 64.513 8.84347ZM69.8609 9.75974C73.4355 12.9062 75.4992 16.617 75.4992 20.5907C75.4992 31.9626 58.5981 41.1814 37.7496 41.1814C30.2454 41.1814 23.2526 39.987 17.3753 37.9278C15.1781 40.1892 13.2252 42.5198 11.5297 44.9088C13.1693 46.1627 15.0193 47.3565 17.071 48.4756C26.4728 53.6039 39.6248 56.8499 54.2837 56.8499C68.9427 56.8499 82.0946 53.6039 91.4965 48.4756C100.98 43.3028 106.155 36.5348 106.155 29.6093C106.155 22.6838 100.98 15.9159 91.4965 10.743C88.7352 9.23689 85.6505 7.89312 82.2992 6.74624C78.0325 7.6288 73.8814 8.63617 69.8609 9.75974ZM70.8722 7.00425C69.7496 7.30659 68.6365 7.61786 67.5333 7.93789C67.4818 7.90184 67.43 7.8659 67.3781 7.83005C68.5322 7.54441 69.6971 7.26907 70.8722 7.00425ZM119.777 0.0857067C117.78 0.0288059 115.77 0 113.747 0C111.579 0 109.426 0.0330733 107.288 0.0983446C105.273 0.0330909 103.242 0 101.197 0C99.2165 0 97.2494 0.0310275 95.2972 0.0922398C93.46 0.0310451 91.6079 0 89.7425 0C87.5526 0 85.381 0.0427844 83.2304 0.126905C81.238 0.042823 79.2244 0 77.1925 0C75.1877 0 73.2008 0.0416855 71.2345 0.123554C69.4222 0.0417281 67.5891 0 65.7381 0C63.7146 0 61.7125 0.0498676 59.7356 0.147473C57.9426 0.0499406 56.1238 0 54.2837 0C51.2089 0 48.1939 0.139443 45.2586 0.407368C42.8318 0.140207 40.3207 0 37.7496 0C16.9011 0 0 9.21877 0 20.5907C0 21.9931 0.257046 23.3628 0.746841 24.6865C0.255645 26.2876 0 27.9321 0 29.6093C0 30.613 0.0915578 31.605 0.270366 32.5831C0.0914239 33.6614 0 34.7534 0 35.8571C0 36.8668 0.0765016 37.8667 0.226516 38.8552C0.0764236 39.9277 0 41.0115 0 42.105C0 43.2133 0.0785088 44.3116 0.232658 45.3984C0.0784379 46.5714 0 47.7559 0 48.9504C0 49.9679 0.0569161 50.9782 0.169106 51.9803C0.0568837 53.0452 0 54.1181 0 55.1983C0 56.3138 0.0606665 57.4216 0.180298 58.5207C0.0606343 59.6868 0 60.8614 0 62.0437C0 65.3183 0.465077 68.5336 1.36117 71.6711C4.74 107.651 59.2942 136.257 126.098 136.257C195.079 136.257 251 105.755 251 68.1286C251 30.5022 195.079 0 126.098 0C123.978 0 121.871 0.028795 119.777 0.0857067ZM96.913 4.28058C97.4612 4.20818 98.0109 4.13778 98.562 4.06938C110.904 6.04159 121.89 9.6728 130.65 14.4507C144.306 21.8997 152.01 31.7872 152.01 42.105C152.01 52.4227 144.306 62.3103 130.65 69.7593C117.09 77.1555 98.1942 81.804 77.1925 81.804C56.1907 81.804 37.295 77.1555 23.7352 69.7593C15.7402 65.3984 9.78545 60.2017 6.22228 54.5722C6.53332 53.7861 6.871 53.0043 7.23494 52.2271C18.1396 63.7985 40.2441 71.7143 65.7381 71.7143C102.044 71.7143 131.476 55.6605 131.476 35.8571C131.476 22.207 117.493 10.3383 96.913 4.28058ZM86.7527 5.87829C88.1164 5.6286 89.491 5.3915 90.876 5.16726C98.5116 6.93621 105.358 9.48133 111.077 12.6009C122.65 18.9131 129.086 27.2403 129.086 35.8571C129.086 44.474 122.65 52.8012 111.077 59.1134C99.5954 65.3762 83.57 69.3238 65.7381 69.3238C47.9062 69.3238 31.8808 65.3762 20.3989 59.1134C15.4015 56.3875 11.3619 53.2858 8.38484 49.9473C8.94166 48.9178 9.54499 47.8971 10.1939 46.8861C20.0485 54.3552 36.1249 59.2186 54.2837 59.2186C84.2638 59.2186 108.567 45.9621 108.567 29.6093C108.567 19.8974 99.9952 11.2777 86.7527 5.87829ZM9.68251 43.3929C11.2446 41.2071 13.0077 39.0762 14.9593 37.0069C14.4198 36.7837 13.8916 36.5528 13.3753 36.3144C11.5878 38.3005 10.0051 40.3405 8.63711 42.4261C8.97259 42.7515 9.3211 43.0738 9.68251 43.3929ZM8.32937 45.3775C7.7754 46.2306 7.2517 47.0916 6.75898 47.9599C6.50987 47.6262 6.27104 47.2904 6.04259 46.9528C6.44779 46.1298 6.88563 45.3126 7.35554 44.5016C7.67113 44.7969 7.99581 45.0889 8.32937 45.3775ZM5.5288 50.2732C5.31664 50.0099 5.11011 49.745 4.9093 49.4785C4.70073 49.9929 4.50477 50.5093 4.32158 51.0275C4.45581 51.3313 4.59681 51.6341 4.74455 51.9359C4.99347 51.379 5.25495 50.8247 5.5288 50.2732ZM3.57908 54.8147C3.49291 54.6661 3.40822 54.5171 3.325 54.3678C3.26754 54.6035 3.2127 54.8395 3.16049 55.0759C3.20514 55.2533 3.25172 55.4303 3.30021 55.6072C3.39036 55.3425 3.48333 55.0783 3.57908 54.8147ZM3.806 64.0917C3.83703 63.822 3.87114 63.5525 3.90834 63.2834C15.1427 83.3248 49.3219 97.9009 89.7425 97.9009C139.306 97.9009 179.485 75.985 179.485 48.9504C179.485 28.8138 157.194 11.517 125.337 4.00134C143.208 6.4206 159.119 11.4589 171.62 18.2779C189.616 28.0939 200.013 41.2554 200.013 55.1983C200.013 69.1412 189.616 82.3027 171.62 92.1187C153.719 101.883 128.825 107.997 101.197 107.997C73.5691 107.997 48.6749 101.883 30.7731 92.1187C16.6615 84.4214 7.22302 74.667 3.806 64.0917ZM3.70276 71.1356C3.66696 70.7171 3.6386 70.2979 3.61774 69.8779C15.4028 93.2375 54.6261 110.397 101.197 110.397C157.086 110.397 202.394 85.6834 202.394 55.1983C202.394 31.9123 175.958 11.9941 138.564 3.88517C159.633 6.47464 178.398 12.2853 193.028 20.2654C213.285 31.3147 225.099 46.1891 225.099 62.0437C225.099 77.8983 213.285 92.7727 193.028 103.822C172.86 114.823 144.834 121.701 113.747 121.701C82.6595 121.701 54.6338 114.823 34.4655 103.822C18.1365 94.9153 7.29381 83.5231 3.70276 71.1356ZM7.00279 83.5258C23.0248 107.204 64.7711 124.087 113.747 124.087C176.567 124.087 227.494 96.3095 227.494 62.0437C227.494 35.8087 197.641 13.3768 155.454 4.30328C177.777 7.26971 197.666 13.5374 213.282 22.0553C235.566 34.2101 248.621 50.6061 248.621 68.1286C248.621 85.651 235.566 102.047 213.282 114.202C191.091 126.306 160.271 133.867 126.098 133.867C91.9246 133.867 61.1047 126.306 38.9133 114.202C23.3215 105.697 12.2477 95.1162 7.00279 83.5258ZM4.65752 59.4236C4.82923 58.7378 5.02101 58.0546 5.23261 57.3744C16.4419 73.0798 44.4342 84.21 77.1925 84.21C119.825 84.21 154.385 65.3589 154.385 42.105C154.385 24.7041 135.033 9.76855 107.428 3.35241C124.741 5.26946 140.15 9.94057 152.052 16.4324C167.966 25.113 177.092 36.7139 177.092 48.9504C177.092 61.187 167.966 72.7879 152.052 81.4684C136.227 90.1002 114.202 95.513 89.7425 95.513C65.2831 95.513 43.2578 90.1002 27.4329 81.4684C16.1535 75.316 8.28439 67.6966 4.65752 59.4236ZM12.1635 33.0112C12.3879 33.1336 12.6155 33.2545 12.8462 33.3738C23.6016 22.1349 40.4832 12.9172 61.0744 7.03863L60.9822 6.99645C49.6108 9.72967 39.3832 13.5815 30.7731 18.2779C22.9277 22.5572 16.5266 27.4724 11.8017 32.811C11.9211 32.8781 12.0418 32.9448 12.1635 33.0112ZM11.1616 35.2076C9.60647 36.9731 8.19998 38.785 6.95101 40.6383C6.80751 40.4711 6.66729 40.3032 6.53038 40.1347C7.5751 38.2799 8.81002 36.4604 10.227 34.6836C10.5329 34.8612 10.8445 35.0359 11.1616 35.2076ZM5.34174 42.4334C5.4316 42.5353 5.52249 42.6368 5.61442 42.738C5.25915 43.3304 4.91979 43.9268 4.59661 44.5269C4.56682 44.4693 4.53733 44.4116 4.50814 44.354C4.76366 43.7103 5.04163 43.07 5.34174 42.4334ZM51.1001 7.22729C33.1523 12.8158 18.6439 21.3146 9.73533 31.5455C9.52796 31.4066 9.32495 31.2667 9.12631 31.1258C13.392 25.7007 19.5875 20.7117 27.4329 16.4324C34.2668 12.7049 42.2569 9.57759 51.1001 7.22729ZM8.19525 33.4023C8.02871 33.2881 7.86435 33.173 7.7022 33.0569C6.61352 34.6361 5.68525 36.2483 4.92395 37.8871C4.94967 37.9286 4.97558 37.97 5.00168 38.0114C5.94301 36.4429 7.00968 34.9054 8.19525 33.4023ZM6.59736 29.0601C6.80572 29.258 7.02175 29.4545 7.24546 29.6497C15.4496 19.2303 30.0942 10.6766 48.4466 5.47906C39.0913 7.57076 30.7078 10.6474 23.7352 14.4507C16.0144 18.662 10.1963 23.6528 6.59736 29.0601ZM5.81655 31.577C4.98027 32.7783 4.22818 34.0022 3.56423 35.2465L3.53953 35.1863C4.00247 33.8214 4.60098 32.473 5.33065 31.146C5.48946 31.2909 5.65145 31.4345 5.81655 31.577ZM38.2541 5.74147C23.083 10.5853 11.2143 18.173 4.93723 27.2561C4.86066 27.1597 4.78579 27.063 4.71263 26.9661C7.54086 21.6434 12.8881 16.6977 20.3989 12.6009C25.526 9.80434 31.5589 7.46942 38.2541 5.74147ZM17.071 10.743C21.4474 8.35587 26.6365 6.37657 32.4118 4.94267C18.8419 9.30436 8.39546 16.2485 3.34371 24.5361C5.2269 19.4428 9.92613 14.6402 17.071 10.743ZM2.3662 20.9358C2.36163 20.8206 2.35935 20.7056 2.35935 20.5907C2.35935 16.2398 5.6326 11.7325 12.1635 8.17016C17.2527 5.39426 23.9811 3.41075 31.5843 2.70515C17.6558 6.20731 6.91056 12.8329 2.3662 20.9358Z" fill="#275AF2"/>
</svg>
